<svg xmlns="http://www.w3.org/2000/svg" xmlns:xlink="http://www.w3.org/1999/xlink" version="1.1" x="0px" y="0px" width="512px" height="512px" viewBox="0 0 512 512" enable-background="new 0 0 512 512" xml:space="preserve"><style>.style0{stroke:	#B35047;fill:	none;}.style1{fill:	#003889;}</style><g display="none"><g display="inline"><line x1="16" y1="0" x2="16" y2="512" class="style0"/><line x1="32" y1="0" x2="32" y2="512" class="style0"/><line x1="48" y1="0" x2="48" y2="512" class="style0"/><line x1="64" y1="0" x2="64" y2="512" class="style0"/><line x1="80" y1="0" x2="80" y2="512" class="style0"/><line x1="96" y1="0" x2="96" y2="512" class="style0"/><line x1="112" y1="0" x2="112" y2="512" class="style0"/><line x1="128" y1="0" x2="128" y2="512" class="style0"/><line x1="144" y1="0" x2="144" y2="512" class="style0"/><line x1="160" y1="0" x2="160" y2="512" class="style0"/><line x1="176" y1="0" x2="176" y2="512" class="style0"/><line x1="192" y1="0" x2="192" y2="512" class="style0"/><line x1="208" y1="0" x2="208" y2="512" class="style0"/><line x1="224" y1="0" x2="224" y2="512" class="style0"/><line x1="240" y1="0" x2="240" y2="512" class="style0"/><line x1="256" y1="0" x2="256" y2="512" class="style0"/><line x1="272" y1="0" x2="272" y2="512" class="style0"/><line x1="288" y1="0" x2="288" y2="512" class="style0"/><line x1="304" y1="0" x2="304" y2="512" class="style0"/><line x1="320" y1="0" x2="320" y2="512" class="style0"/><line x1="336" y1="0" x2="336" y2="512" class="style0"/><line x1="352" y1="0" x2="352" y2="512" class="style0"/><line x1="368" y1="0" x2="368" y2="512" class="style0"/><line x1="384" y1="0" x2="384" y2="512" class="style0"/><line x1="400" y1="0" x2="400" y2="512" class="style0"/><line x1="416" y1="0" x2="416" y2="512" class="style0"/><line x1="432" y1="0" x2="432" y2="512" class="style0"/><line x1="448" y1="0" x2="448" y2="512" class="style0"/><line x1="464" y1="0" x2="464" y2="512" class="style0"/><line x1="480" y1="0" x2="480" y2="512" class="style0"/><line x1="496" y1="0" x2="496" y2="512" class="style0"/><line x1="0" y1="16" x2="512" y2="16" class="style0"/><line x1="0" y1="32" x2="512" y2="32" class="style0"/><line x1="0" y1="48" x2="512" y2="48" class="style0"/><line x1="0" y1="64" x2="512" y2="64" class="style0"/><line x1="0" y1="80" x2="512" y2="80" class="style0"/><line x1="0" y1="96" x2="512" y2="96" class="style0"/><line x1="0" y1="112" x2="512" y2="112" class="style0"/><line x1="0" y1="128" x2="512" y2="128" class="style0"/><line x1="0" y1="144" x2="512" y2="144" class="style0"/><line x1="0" y1="160" x2="512" y2="160" class="style0"/><line x1="0" y1="176" x2="512" y2="176" class="style0"/><line x1="0" y1="192" x2="512" y2="192" class="style0"/><line x1="0" y1="208" x2="512" y2="208" class="style0"/><line x1="0" y1="224" x2="512" y2="224" class="style0"/><line x1="0" y1="240" x2="512" y2="240" class="style0"/><line x1="0" y1="256" x2="512" y2="256" class="style0"/><line x1="0" y1="272" x2="512" y2="272" class="style0"/><line x1="0" y1="288" x2="512" y2="288" class="style0"/><line x1="0" y1="304" x2="512" y2="304" class="style0"/><line x1="0" y1="320" x2="512" y2="320" class="style0"/><line x1="0" y1="336" x2="512" y2="336" class="style0"/><line x1="0" y1="352" x2="512" y2="352" class="style0"/><line x1="0" y1="368" x2="512" y2="368" class="style0"/><line x1="0" y1="384" x2="512" y2="384" class="style0"/><line x1="0" y1="400" x2="512" y2="400" class="style0"/><line x1="0" y1="416" x2="512" y2="416" class="style0"/><line x1="0" y1="432" x2="512" y2="432" class="style0"/><line x1="0" y1="448" x2="512" y2="448" class="style0"/><line x1="0" y1="464" x2="512" y2="464" class="style0"/><line x1="0" y1="480" x2="512" y2="480" class="style0"/><line x1="0" y1="496" x2="512" y2="496" class="style0"/><rect x="0" width="512" height="512" class="style0"/></g></g><g><path d="M256 0C114.615 0 0 114.6 0 256s114.615 256 256 256s256-114.615 256-256S397.385 0 256 0z M192.456 74.52c6.589-6.588 14.572-9.882 23.958-9.882c9.378 0 17.4 3.3 24 9.882c6.589 6.6 9.9 14.5 9.9 23.7 c0 9.189-3.294 17.069-9.883 23.657c-6.588 6.588-14.58 9.883-23.958 9.883c-9.386 0-17.369-3.295-23.958-9.883 c-6.588-6.588-9.882-14.468-9.882-23.657C182.574 89 185.9 81.1 192.5 74.52z M307.153 426.7 c-20.765 13.774-43.721 20.663-68.877 20.663c-35.141 0-65.088-12.277-89.841-36.835c-24.762-24.556-37.135-54.4-37.135-89.541 c0-22.357 5.391-42.918 16.172-61.692c10.781-18.763 25.351-33.934 43.723-45.519l1.797 31.7 c-23.162 19.971-34.738 45.126-34.738 75.466c0 27.6 9.7 51.1 29 70.676c19.363 19.6 43 29.3 71 29.3 c23.555 0 44.415-7.487 62.59-22.46c18.165-14.974 29.647-33.839 34.439-56.599l17.969 30.5 C343.287 394.9 327.9 412.9 307.2 426.699z M416.163 377.286c-1.199 5.194-4.194 9.189-8.984 12 c-4.792 2.798-9.79 3.5-14.974 2.096c-5.194-1.394-9.191-4.287-11.979-8.684l-44.922-77.264H226.297 c-8.787 0-16.471-2.893-23.06-8.686c-6.588-5.782-10.285-13.072-11.08-21.86l-5.989-102.421 c-0.403-8.777 2.396-16.564 8.386-23.357c5.989-6.787 13.476-10.481 22.46-11.082c8.984-0.599 16.8 2.2 23.4 8.4 c6.589 6.2 10.3 13.7 11.1 22.46l1.797 28.75h62.888c4.391 0 8.1 1.5 11.1 4.5 c2.995 3 4.5 6.6 4.5 10.78c0 4.194-1.497 7.787-4.492 10.782c-2.995 2.995-6.692 4.492-11.082 4.492h-61.091 l1.198 25.755h83.852c7.189 0 12.6 3.2 16.2 9.583l57.498 98.825C416.556 367.1 417.4 372.1 416.2 377.286z" class="style1"/></g></svg>