<?xml version="1.0" standalone="no"?>
<!DOCTYPE svg PUBLIC "-//W3C//DTD SVG 1.1//EN" "http://www.w3.org/Graphics/SVG/1.1/DTD/svg11.dtd" >
<svg xmlns="http://www.w3.org/2000/svg">
<metadata>Generated by IcoMoon</metadata>
<defs>
<font id="expressparking: 2014" horiz-adv-x="512">
<font-face units-per-em="512" ascent="480" descent="-32" />
<missing-glyph horiz-adv-x="512" />
<glyph unicode="&#x20;" d="" horiz-adv-x="256" />
<glyph unicode="&#xe000;" d="M292.571 278.857q0-7.429-5.429-12.857l-128-128q-5.429-5.429-12.857-5.429t-12.857 5.429l-128 128q-5.429 5.429-5.429 12.857t5.429 12.857 12.857 5.429h256q7.429 0 12.857-5.429t5.429-12.857z" horiz-adv-x="292" />
<glyph unicode="&#xe001;" d="M292.571 132.571q0-7.429-5.429-12.857t-12.857-5.429h-256q-7.429 0-12.857 5.429t-5.429 12.857 5.429 12.857l128 128q5.429 5.429 12.857 5.429t12.857-5.429l128-128q5.429-5.429 5.429-12.857z" horiz-adv-x="292" />
<glyph unicode="&#xe003;" d="M194.585 136.499c-6.861-6.938-6.861-18.151 0-25.063 6.835-6.938 17.946-6.938 24.806 0l98.048 100.019c6.861 6.938 6.861 18.15 0 25.063l-98.048 100.045c-6.861 6.938-17.946 6.938-24.806 0s-6.861-18.125-0.025-25.037l80.409-87.527-80.384-87.501z" />
<glyph unicode="&#xe004;" d="M317.414 136.499c6.861-6.938 6.861-18.151 0-25.063-6.861-6.938-17.945-6.938-24.807 0l-98.048 100.019c-6.861 6.938-6.861 18.15 0 25.063l98.048 100.045c6.861 6.938 17.945 6.938 24.807 0s6.861-18.125 0-25.063l-80.384-87.501 80.384-87.501z" />
<glyph unicode="&#xe007;" d="M256 428.8c-70.707 0-128-57.319-128-128 0-122.214 128-281.6 128-281.6s128 159.386 128 281.6c0 70.681-57.293 128-128 128zM256 230.144c-38.169 0-69.12 30.951-69.12 69.12s30.951 69.12 69.12 69.12 69.12-30.951 69.12-69.12-30.95-69.12-69.12-69.12z" />
<glyph unicode="&#xe008;" d="M40.806 344.678c12.493-6.733 185.575-99.686 192.025-103.142 6.425-3.456 14.771-5.12 23.168-5.12 8.423 0 16.768 1.664 23.193 5.145 6.451 3.456 179.507 96.41 192 103.143 12.519 6.707 24.346 27.776 1.382 27.776h-433.127c-22.963 0-11.162-21.069 1.357-27.802zM476.493 293.478c-14.208-7.424-188.595-98.585-197.299-103.142s-14.771-5.146-23.193-5.146c-8.397 0-14.464 0.589-23.168 5.146s-183.117 95.744-197.299 103.142c-10.009 5.223-9.933-0.896-9.933-5.607s0-187.776 0-187.776c0-10.752 14.31-24.576 25.395-24.576h410.035c11.111 0 25.37 13.824 25.37 24.55 0 0 0 183.065 0 187.776 0 4.736 0.103 10.855-9.907 5.632z" />
<glyph unicode="&#xe009;" d="M491.52 370.099c-17.357-7.705-35.968-12.877-55.526-15.232 19.968 11.955 35.303 30.899 42.496 53.453-18.663-11.059-39.347-19.123-61.337-23.45-17.639 18.791-42.752 30.515-70.553 30.515-53.376 0-96.64-43.264-96.64-96.614 0-7.577 0.845-14.95 2.509-22.016-80.307 4.019-151.526 42.496-199.168 100.966-8.346-14.259-13.133-30.873-13.133-48.589 0-33.536 17.075-63.104 43.008-80.435-15.847 0.512-30.745 4.839-43.776 12.083 0-0.41 0-0.793 0-1.203 0-46.822 33.331-85.862 77.517-94.771-8.090-2.202-16.64-3.379-25.472-3.379-6.221 0-12.263 0.589-18.176 1.715 12.288-38.4 48-66.329 90.265-67.098-33.075-25.933-74.727-41.37-120.013-41.37-7.808 0-15.488 0.461-23.040 1.357 42.752-27.418 93.542-43.418 148.147-43.418 177.741 0 274.944 147.251 274.944 274.969 0 4.173-0.077 8.346-0.281 12.493 18.893 13.619 35.251 30.643 48.231 50.022z" />
<glyph unicode="&#xe00a;" d="M384 374.298h-73.113c-8.653 0-18.304-11.367-18.304-26.599v-52.787h91.418v-75.264h-91.418v-226.048h-86.323v226.023h-78.259v75.289h78.259v44.288c0 63.514 44.083 115.2 104.601 115.2h73.139v-80.103z" />
<glyph unicode="&#xe00b;" d="M220.57 141.363c-13.44-70.477-29.85-138.061-78.49-173.363-15.001 106.547 22.041 186.547 39.245 271.488-29.338 49.408 3.533 148.787 65.433 124.288 76.16-30.131-65.945-183.629 29.44-202.803 99.61-20.019 140.262 172.8 78.515 235.494-89.241 90.573-259.789 2.099-238.797-127.513 5.094-31.693 37.837-41.319 13.082-85.043-57.114 12.647-74.163 57.702-71.962 117.76 3.533 98.279 88.32 167.091 173.363 176.614 107.571 12.058 208.512-39.475 222.413-140.646 15.693-114.176-48.512-237.85-163.558-228.941-31.155 2.381-44.237 17.817-68.685 32.666z" />
<glyph unicode="&#xe00c;" d="M50.944 336.922c0-38.221 12.775-65.843 37.939-82.048 20.608-13.286 44.544-15.283 56.986-15.283 3.021 0 5.427 0.128 7.117 0.231 0 0-3.942-25.677 15.104-51.097l-0.87 0.026c-32.999 0-140.647-6.912-140.647-95.411 0-90.035 98.867-94.592 118.681-94.592 1.561 0 2.458 0.026 2.458 0.026 0.231 0 1.638-0.051 4.045-0.051 12.723 0 45.619 1.587 76.186 16.461 39.629 19.226 59.75 52.711 59.75 99.456 0 45.184-30.618 72.064-52.992 91.725-13.645 11.981-25.446 22.323-25.446 32.384 0 10.24 8.601 17.946 19.507 27.699 17.613 15.769 34.253 38.221 34.253 80.666 0 37.325-4.839 62.361-34.662 78.233 3.123 1.587 14.106 2.739 19.559 3.507 16.154 2.202 39.782 4.711 39.782 17.894v2.535h-117.709c-1.178-0.026-119.040-4.403-119.040-112.358zM240.973 106.189c2.253-35.993-28.544-62.567-74.778-65.92-46.951-3.456-85.632 17.69-87.885 53.683-1.075 17.28 6.502 34.202 21.376 47.693 15.104 13.645 35.789 22.067 58.342 23.757 2.662 0.154 5.299 0.281 7.936 0.281 43.443 0 72.883-25.549 75.008-59.495zM210.227 361.575c11.546-40.627-5.888-83.098-33.664-90.931-3.2-0.896-6.502-1.357-9.831-1.357-25.472 0-50.688 25.753-60.032 61.235-5.222 19.942-4.813 37.351 1.177 54.118 5.888 16.461 16.461 27.623 29.773 31.36 3.2 0.921 6.528 1.357 9.856 1.357 30.72 0 50.483-12.749 62.72-55.782zM408.601 273.101v76.8h-48.64v-76.8h-76.8v-48.64h76.8v-76.8h48.64v76.8h76.8v48.64h-76.8z" />
<glyph unicode="&#xe00d;" d="M256 480c-141.376 0-256-114.624-256-256s114.624-256 256-256 256 114.624 256 256-114.624 256-256 256zM216.32 105.872l-117.792 117.808 45.248 45.248 72.528-72.56 153.872 153.872 45.248-45.248-199.104-199.12z" />
<glyph unicode="&#xe00e;" d="M256 480c-141.376 0-256-114.624-256-256s114.624-256 256-256 256 114.624 256 256-114.624 256-256 256zM382.624 142.624l-45.248-45.248-81.376 81.376-81.376-81.376-45.248 45.248 81.376 81.376-81.376 81.376 45.248 45.248 81.376-81.376 81.376 81.376 45.248-45.248-81.376-81.376 81.376-81.376z" />
<glyph unicode="&#xe00f;" d="M379.392 110.131c-63.104 22.989-83.277 42.394-83.277 83.942 0 24.935 19.277 16.793 27.725 62.464 3.507 18.944 20.531 0.307 23.808 43.546 0 17.229-9.293 21.529-9.293 21.529s4.736 25.523 6.579 45.133c2.253 24.473-14.131 87.654-101.734 87.654-87.578 0-104.013-63.181-101.709-87.654 1.843-19.61 6.579-45.133 6.579-45.133s-9.319-4.275-9.319-21.529c3.251-43.238 20.275-24.601 23.782-43.546 8.474-45.671 27.75-37.529 27.75-62.464 0-41.549-20.173-60.954-83.277-83.942-63.334-23.040-104.448-46.567-104.448-62.618 0-16.026 0-53.888 0-53.888h481.28c0 0 0 37.863 0 53.888s-41.139 39.552-104.448 62.618z" />
<glyph unicode="&#xe010;" d="M389.12 224c0-73.523-59.623-133.12-133.12-133.12-73.523 0-133.12 59.597-133.12 133.12 0 8.755 0.871 17.305 2.509 25.6h-89.549v-176.947c0-37.99 30.771-68.813 68.813-68.813h302.694c37.99 0 68.813 30.797 68.813 68.813v176.947h-89.523c1.613-8.294 2.483-16.845 2.483-25.6zM407.347 444.16h-302.695c-38.016 0-68.813-30.822-68.813-68.813v-74.547h111.462c24.089 34.048 63.795 56.32 108.697 56.32s84.608-22.272 108.697-56.32h111.463v74.547c0 37.99-30.822 68.813-68.813 68.813zM441.011 359.168c0-6.784-5.529-12.288-12.288-12.288h-36.839c-6.759 0-12.288 5.529-12.288 12.288v36.864c0 6.784 5.555 12.288 12.288 12.288h36.839c6.784 0 12.288-5.53 12.288-12.288v-36.864zM337.92 224c0 45.261-36.685 81.92-81.92 81.92s-81.92-36.659-81.92-81.92 36.685-81.92 81.92-81.92 81.92 36.659 81.92 81.92z" />
<glyph unicode="&#xe011;" d="M277.429 124.571v-60.286q0-19.143-11.143-19.143-6.571 0-12.857 6.286v86q6.285 6.286 12.857 6.286 11.143 0 11.143-19.143zM374 124.286v-13.143h-25.714v13.143q0 19.429 12.857 19.429t12.857-19.429zM98 186.571h30.571v26.857h-89.143v-26.857h30v-162.571h28.571v162.571zM180.286 24h25.429v141.143h-25.429v-108q-8.571-12-16.286-12-5.143 0-6 6-0.286 0.857-0.286 10v104h-25.429v-111.714q0-14 2.286-20.857 3.429-10.571 16.571-10.571 13.714 0 29.143 17.429v-15.429zM302.857 66.286v56.286q0 20.857-2.571 28.286-4.857 16-20.286 16-14.286 0-26.571-15.429v62h-25.429v-189.429h25.429v13.714q12.857-15.714 26.571-15.714 15.429 0 20.286 15.714 2.571 7.714 2.571 28.571zM399.429 69.143v3.714h-26q0-14.571-0.571-17.429-2-10.286-11.429-10.286-13.143 0-13.143 19.714v24.857h51.143v29.429q0 22.571-7.714 33.143-11.143 14.571-30.286 14.571-19.429 0-30.571-14.571-8-10.571-8-33.143v-49.429q0-22.571 8.286-33.143 11.143-14.571 30.857-14.571 20.571 0 30.857 15.143 5.143 7.714 6 15.429 0.571 2.571 0.571 16.571zM225.714 330v60q0 19.714-12.286 19.714t-12.286-19.714v-60q0-20 12.286-20t12.286 20zM431.143 115.429q0-66.857-7.429-100-4-16.857-16.571-28.286t-29.143-13.143q-52.571-6-158.571-6t-158.571 6q-16.571 1.714-29.285 13.143t-16.429 28.286q-7.429 32-7.429 100 0 66.857 7.429 100 4 16.857 16.571 28.286t29.429 13.429q52.285 5.715 158.286 5.715t158.571-5.715q16.571-2 29.286-13.429t16.429-28.286q7.429-32 7.429-100zM146 480h29.143l-34.571-114v-77.429h-28.571v77.429q-4 21.143-17.429 60.571-10.571 29.429-18.571 53.429h30.285l20.285-75.143zM251.714 384.857v-50q0-23.143-8-33.714-10.571-14.571-30.286-14.571-19.143 0-30 14.571-8 10.857-8 33.714v50q0 22.857 8 33.429 10.857 14.571 30 14.571 19.714 0 30.286-14.571 8-10.571 8-33.429zM347.429 431.143v-142.571h-26v15.714q-15.143-17.714-29.429-17.714-13.143 0-16.857 10.571-2.286 6.857-2.286 21.429v112.571h26v-104.857q0-9.429 0.286-10 0.857-6.286 6-6.286 7.714 0 16.286 12.286v108.857h26z" horiz-adv-x="439" />
<glyph unicode="&#xe012;" d="M109.715 269.714v-54.857q0-11.429-8-19.429t-19.429-8h-54.857q-11.429 0-19.429 8t-8 19.429v54.857q0 11.429 8 19.429t19.429 8h54.857q11.429 0 19.429-8t8-19.429zM256 269.714v-54.857q0-11.429-8-19.429t-19.429-8h-54.857q-11.429 0-19.429 8t-8 19.429v54.857q0 11.429 8 19.429t19.429 8h54.857q11.429 0 19.429-8t8-19.429zM402.286 269.714v-54.857q0-11.429-8-19.429t-19.429-8h-54.857q-11.429 0-19.429 8t-8 19.429v54.857q0 11.429 8 19.429t19.429 8h54.857q11.429 0 19.429-8t8-19.429z" horiz-adv-x="402" />
<glyph unicode="&#xe013;" d="M421.005 185.26c-6.824 6.723-21.957 10.283-44.986 10.586-15.589 0.172-34.351-1.201-54.085-3.964-8.837 5.099-17.947 10.647-25.094 17.329-19.231 17.958-35.284 42.887-45.288 70.297 0.652 2.56 1.207 4.809 1.724 7.106 0 0 10.833 61.529 7.965 82.333-0.395 2.853-0.637 3.681-1.404 5.898l-0.941 2.417c-2.948 6.796-8.724 13.997-17.783 13.604l-5.458 0.172c-10.1 0-18.332-5.166-20.493-12.887-6.569-24.217 0.209-60.447 12.491-107.369l-3.144-7.643c-8.793-21.438-19.815-43.031-29.539-62.079l-1.264-2.476c-10.231-20.019-19.512-37.013-27.927-51.411l-8.688-4.594c-0.632-0.334-15.522-8.209-19.013-10.322-29.628-17.691-49.261-37.771-52.519-53.708-1.036-5.085-0.265-11.593 5.007-14.607l8.403-4.229c3.645-1.827 7.489-2.751 11.427-2.751 21.102 0 45.6 26.286 79.348 85.183 38.965 12.684 83.327 23.228 122.207 29.045 29.629-16.684 66.071-28.273 89.071-28.273 4.084 0 7.606 0.389 10.466 1.148 4.411 1.168 8.129 3.683 10.396 7.096 4.463 6.716 5.367 15.966 4.156 25.438-0.363 2.815-2.607 6.291-5.037 8.663zM105.823 72.976c3.848 10.521 19.080 31.322 41.602 49.778 1.416 1.148 4.904 4.416 8.097 7.451-23.55-37.562-39.322-52.533-49.698-57.229zM239.217 380.157c6.783 0 10.642-17.097 10.963-33.127 0.32-16.030-3.429-27.28-8.079-35.604-3.851 12.324-5.713 31.75-5.713 44.452 0 0-0.283 24.279 2.829 24.279zM199.425 161.253c4.725 8.457 9.641 17.378 14.665 26.839 12.246 23.159 19.979 41.278 25.739 56.173 11.455-20.841 25.723-38.56 42.493-52.756 2.092-1.771 4.309-3.551 6.637-5.325-34.104-6.748-63.582-14.955-89.534-24.931zM414.452 163.173c-2.077-1.299-8.027-2.050-11.853-2.050-12.353 0-27.636 5.647-49.063 14.833 8.235 0.609 15.781 0.919 22.55 0.919 12.391 0 16.060 0.055 28.175-3.036s12.268-9.366 10.191-10.666zM451.716 380.285l-71.432 71.431c-15.556 15.556-46.284 28.284-68.284 28.284h-240c-22 0-40-18-40-40v-432c0-22 18-40 40-40h368c22 0 40 18 40 40v304c0 22-12.728 52.729-28.284 68.285zM429.089 357.657c1.565-1.565 3.125-3.487 4.64-5.657h-81.729v81.728c2.17-1.515 4.092-3.075 5.657-4.64l71.432-71.431zM448 8c0-4.336-3.664-8-8-8h-368c-4.336 0-8 3.664-8 8v432c0 4.336 3.664 8 8 8h240c2.416 0 5.127-0.305 8-0.852v-127.148h127.148c0.547-2.873 0.852-5.583 0.852-8v-304z" />
<glyph unicode="&#xe014;" d="M182.857 68.571q0-1.143 0.286-5.714t0.143-7.571-0.857-6.714-2.857-5.571-5.857-1.857h-91.429q-34 0-58.143 24.143t-24.143 58.143v201.143q0 34 24.143 58.143t58.143 24.143h91.429q3.714 0 6.429-2.714t2.714-6.429q0-1.143 0.286-5.714t0.143-7.571-0.857-6.714-2.857-5.571-5.857-1.857h-91.429q-18.857 0-32.285-13.429t-13.429-32.285v-201.143q0-18.857 13.429-32.286t32.285-13.429h89.143t3.286-0.286 3.286-0.857 2.286-1.571 2-2.571 0.571-3.857zM448 224q0-7.429-5.429-12.857l-155.429-155.429q-5.429-5.429-12.857-5.429t-12.857 5.429-5.429 12.857v82.286h-128q-7.429 0-12.857 5.429t-5.429 12.857v109.714q0 7.429 5.429 12.857t12.857 5.429h128v82.286q0 7.429 5.429 12.857t12.857 5.429 12.857-5.429l155.429-155.429q5.429-5.429 5.429-12.857z" horiz-adv-x="475" />
<glyph unicode="&#xe015;" d="M438.857 224q0-44.571-17.429-85.143t-46.857-70-70-46.857-85.143-17.429-85.143 17.429-70 46.857-46.857 70-17.429 85.143q0 52 23 98t64.715 77.143q12.285 9.143 27.285 7.143t23.857-14.286q9.143-12 7-27t-14.143-24.143q-28-21.143-43.285-51.714t-15.285-65.143q0-29.715 11.571-56.715t31.285-46.714 46.715-31.286 56.714-11.571 56.714 11.571 46.714 31.286 31.286 46.714 11.571 56.714q0 34.571-15.286 65.143t-43.286 51.714q-12 9.143-14.143 24.143t7 27q8.857 12.286 24 14.286t27.143-7.143q41.714-31.143 64.714-77.143t23-98zM256 443.429v-182.857q0-14.857-10.857-25.714t-25.715-10.857-25.714 10.857-10.857 25.714v182.857q0 14.857 10.857 25.715t25.714 10.857 25.714-10.857 10.857-25.715z" horiz-adv-x="439" />
<glyph unicode="&#xe016;" d="M292.571 224q0 30.286-21.429 51.714t-51.714 21.429-51.714-21.429-21.429-51.714 21.429-51.714 51.714-21.429 51.714 21.429 21.429 51.714zM438.857 255.143v-63.429q0-3.429-2.286-6.571t-5.714-3.714l-52.857-8q-5.429-15.429-11.143-26 10-14.286 30.571-39.429 2.857-3.429 2.857-7.143t-2.571-6.571q-7.714-10.571-28.286-30.857t-26.857-20.286q-3.429 0-7.429 2.571l-39.429 30.857q-12.571-6.571-26-10.857-4.571-38.857-8.286-53.143-2-8-10.286-8h-63.429q-4 0-7 2.429t-3.286 6.143l-8 52.571q-14 4.571-25.715 10.571l-40.285-30.571q-2.857-2.571-7.143-2.571-4 0-7.143 3.143-36 32.571-47.143 48-2 2.857-2 6.571 0 3.429 2.285 6.571 4.285 6 14.571 19t15.429 20.143q-7.715 14.286-11.715 28.286l-52.285 7.714q-3.715 0.571-6 3.571t-2.285 6.714v63.429q0 3.429 2.285 6.571t5.429 3.714l53.143 8q4 13.143 11.143 26.286-11.429 16.286-30.571 39.429-2.857 3.429-2.857 6.857 0 2.857 2.571 6.571 7.429 10.285 28.143 30.714t27 20.429q3.715 0 7.429-2.857l39.429-30.571q12.571 6.571 26 10.857 4.571 38.857 8.286 53.143 2 8 10.286 8h63.429q4 0 7-2.429t3.286-6.143l8-52.571q14-4.571 25.714-10.571l40.571 30.571q2.571 2.571 6.857 2.571 3.714 0 7.143-2.857 36.857-34 47.143-48.571 2-2.286 2-6.286 0-3.429-2.286-6.571-4.286-6-14.571-19t-15.429-20.143q7.429-14.286 11.714-28l52.286-8q3.714-0.571 6-3.571t2.286-6.714z" horiz-adv-x="439" />
<glyph unicode="&#xe018;" d="M72 0c-4.336 0-8 3.664-8 8v432c0 4.336 3.664 8 8 8h208c2.416 0 5.127-0.305 8-0.852v-127.148h127.148c0.547-2.873 0.852-5.583 0.852-8v-56h32v56c0 22-12.728 52.729-28.284 68.285l-71.432 71.431c-15.556 15.556-46.284 28.284-68.284 28.284h-208c-22 0-40-18-40-40v-432c0-22 18-40 40-40h120.5v32h-120.5zM320 433.728c2.17-1.515 4.092-3.075 5.657-4.64l71.432-71.431c1.565-1.565 3.125-3.487 4.64-5.657h-81.729v81.728zM480.068 112.083c0-39.836-14.041-73.788-42.116-101.863-28.083-28.083-62.034-42.116-101.863-42.116-39.836 0-73.787 14.034-101.863 42.116-28.083 28.075-42.116 62.027-42.116 101.863 0 39.828 14.035 73.78 42.116 101.863 28.076 28.075 62.027 42.116 101.863 42.116 39.829 0 73.78-14.041 101.863-42.116 28.076-28.083 42.116-62.034 42.116-101.863zM448.726 112.083c0 31.013-11.019 57.543-33.056 79.58s-48.567 33.056-79.58 33.056c-31.021 0-57.543-11.019-79.58-33.056s-33.056-48.567-33.056-79.58c0-31.021 11.019-57.543 33.056-79.58s48.559-33.056 79.58-33.056c31.014 0 57.543 11.019 79.58 33.056s33.056 48.558 33.056 79.58zM346.863 116.491l47.014-47.014-15.181-15.181-53.38 53.38v85.702h21.548l-0.001-76.887z" />
<glyph unicode="&#xe01b;" d="M192.307 390.059c24.999 0 45.039 20.311 45.039 44.971 0 24.931-20.039 44.97-45.039 44.97-24.795 0-44.969-20.039-44.969-44.97-0.001-24.66 20.175-44.971 44.969-44.971zM411.115 55.293c7.201-11.616 23.64-16.44 36.071-8.967 12.363 7.404 16.099 22.961 9.034 35.936l-76.695 132.397c-4.755 7.948-13.111 12.499-21.737 12.771h-112.495l-1.087 33.966h81.721c11.141 0.611 20.312 9.103 20.312 20.516 0 11.277-8.899 20.039-20.312 20.447l-84.097-0.001-2.921 38.653c-1.563 23.572-21.873 42.185-45.785 40.827-23.98-1.291-42.186-22.010-40.963-45.921l7.812-136.474c1.97-23.912 22.011-41.031 45.786-40.895h145.78l59.575-103.256zM221.246 4.005c-73.773 0-133.62 59.644-133.62 133.553 0 40.487 18.341 76.559 46.873 101.15l-2.379 41.778c-47.756-29.889-79.887-82.401-79.887-142.927 0-93.269 75.607-169.013 169.013-169.013 68.747 0 127.507 41.37 153.933 100.334l-23.777 41.099c-12.703-60.391-65.894-105.974-130.156-105.974z" />
<glyph unicode="&#xe01c;" d="M511.2 330.333h-47.851l-17.736 42.533-8.847 21.267h-0.021l-9.531 22.903c-4.507 10.805-17.757 19.632-29.45 19.632h-283.528c-11.693 0-24.943-8.827-29.451-19.632l-9.531-22.903h-0.021l-8.847-21.267-17.736-42.533h-47.85v-42.533h30.135l-8.868-21.267v-255.2h63.8v42.533h340.267v-42.533h63.8v255.2l-8.868 21.267h30.134v42.533zM369.415 394.133c11.693 0 23.26-4.777 25.69-10.633l4.445-10.633 26.583-63.8h-340.267l26.583 63.8 4.445 10.633c2.43 5.856 13.997 10.633 25.691 10.633h226.829zM128.4 181.467h-63.8l-21.267 21.267v44.652l85.067-23.387v-42.533zM319.8 96.4h-127.6v42.533h127.6v-42.533zM468.667 202.733l-21.267-21.265h-63.8v42.533l85.067 23.385v-44.652z" />
<glyph unicode="&#xe01d;" d="M182.857 352v-256q0-7.429-5.429-12.857t-12.857-5.429-12.857 5.429l-128 128q-5.429 5.429-5.429 12.857t5.429 12.857l128 128q5.429 5.429 12.857 5.429t12.857-5.429 5.429-12.857z" horiz-adv-x="183" />
<glyph unicode="&#xe01e;" d="M164.571 224q0-7.429-5.429-12.857l-128-128q-5.429-5.429-12.857-5.429t-12.857 5.429-5.429 12.857v256q0 7.429 5.429 12.857t12.857 5.429 12.857-5.429l128-128q5.429-5.429 5.429-12.857z" horiz-adv-x="183" />
<glyph unicode="&#xe01f;" d="M512 251.429v-54.857q0-4-2.571-6.571t-6.571-2.571h-356.571v-64q0-6-5.429-8.286t-10 1.429l-109.715 100q-2.857 2.857-2.857 6.571 0 4 2.857 6.857l109.715 101.143q4.571 4 10 1.714 5.429-2.571 5.429-8.286v-64h356.571q4 0 6.571-2.571t2.571-6.571z" />
<glyph unicode="&#xe020;" d="M431.714 178.286q0-1.429-0.286-2-18.286-76.571-76.571-124.143t-136.571-47.571q-41.715 0-80.715 15.714t-69.571 44.857l-36.857-36.857q-5.429-5.429-12.857-5.429t-12.857 5.429-5.429 12.857v128q0 7.429 5.429 12.857t12.857 5.429h128q7.429 0 12.857-5.429t5.429-12.857-5.429-12.857l-39.143-39.143q20.285-18.857 46-29.143t53.429-10.286q38.286 0 71.429 18.571t53.143 51.143q3.143 4.857 15.143 33.429 2.286 6.571 8.571 6.571h54.857q3.714 0 6.429-2.714t2.714-6.429zM438.857 406.857v-128q0-7.429-5.429-12.857t-12.857-5.429h-128q-7.429 0-12.857 5.429t-5.429 12.857 5.429 12.857l39.429 39.429q-42.286 39.143-99.714 39.143-38.286 0-71.429-18.571t-53.143-51.143q-3.143-4.857-15.143-33.429-2.285-6.571-8.571-6.571h-56.857q-3.715 0-6.429 2.714t-2.715 6.429v2q18.571 76.571 77.143 124.143t137.143 47.571q41.714 0 81.143-15.857t70-44.714l37.143 36.857q5.429 5.429 12.857 5.429t12.857-5.429 5.429-12.857z" horiz-adv-x="439" />
<glyph unicode="&#xe021;" d="M460.8 449.28h-409.6c-28.16 0-51.2-23.040-51.2-51.2v-281.6c0-28.16 22.579-55.731 50.202-61.261l111.923-22.375c0 0-96.333-34.125-34.125-34.125h256c62.208 0-34.125 34.125-34.125 34.125l111.923 22.375c27.597 5.529 50.202 33.101 50.202 61.261v281.6c0 28.16-23.040 51.2-51.2 51.2zM460.8 119.040h-409.6v284.16h409.6v-284.16z" />
</font>
</defs>
</svg>
